<svg width="169" height="169" viewBox="0 0 169 169" fill="none" xmlns="http://www.w3.org/2000/svg">
<path d="M0.414062 30C0.414062 13.4315 13.8455 0 30.4141 0H168.878V138.464C168.878 155.033 155.447 168.464 138.878 168.464H0.414062V30Z" fill="#72BF44"/>
<path d="M134.314 93.455C132.818 93.3872 131.326 93.6568 129.948 94.2439V85.4775C129.95 84.2171 129.452 83.0075 128.563 82.114C127.674 81.2205 126.467 80.716 125.207 80.7112H81.5857C80.3254 80.716 79.1184 81.2205 78.2296 82.114C77.3407 83.0076 76.8426 84.2172 76.8445 85.4775V94.2434C75.4668 93.6564 73.9747 93.3869 72.4787 93.455C67.507 93.6851 63.4336 97.7071 63.2056 102.61C62.9827 107.389 66.3959 111.607 71.0832 112.504V138.992C71.084 139.802 71.4063 140.579 71.9793 141.152C72.5522 141.725 73.3291 142.047 74.1394 142.048H79.6799C80.4898 142.047 81.2663 141.725 81.8391 141.153C82.412 140.58 82.7346 139.804 82.7362 138.994L82.74 133.3H124.053L124.057 138.994C124.058 139.804 124.381 140.58 124.954 141.153C125.527 141.725 126.304 142.047 127.114 142.048H132.654C133.464 142.047 134.241 141.725 134.814 141.152C135.387 140.579 135.709 139.802 135.71 138.992V112.504C140.397 111.607 143.811 107.389 143.588 102.61C143.358 97.7066 139.285 93.6851 134.314 93.455V93.455ZM79.7273 85.4775C79.7247 84.9815 79.9189 84.5047 80.2673 84.1517C80.6156 83.7986 81.0898 83.5981 81.5857 83.5941H125.207C125.703 83.5981 126.177 83.7986 126.525 84.1516C126.874 84.5047 127.068 84.9815 127.065 85.4775V96.118C127.041 96.1401 127.017 96.1607 126.993 96.1831C126.056 97.0654 125.309 98.1303 124.799 99.3123C124.288 100.494 124.025 101.768 124.026 103.055L124.024 103.229C124.022 103.411 124.02 103.616 124.033 103.824L124.038 111.289C119.926 110.17 115.729 109.389 111.49 108.952L114.147 101.635C114.277 101.275 114.26 100.879 114.098 100.532C113.937 100.186 113.644 99.918 113.285 99.7874C112.925 99.6568 112.529 99.6743 112.182 99.836C111.836 99.9977 111.568 100.29 111.437 100.65L108.513 108.701C105.347 108.496 102.173 108.484 99.0056 108.664L95.306 100.717C95.1415 100.376 94.8492 100.113 94.4923 99.9851C94.1354 99.8576 93.7426 99.8758 93.399 100.036C93.0555 100.196 92.7887 100.485 92.6565 100.84C92.5243 101.195 92.5373 101.588 92.6927 101.934L95.9359 108.9C91.4814 109.331 87.0714 110.139 82.7535 111.315L82.7588 103.823C82.7725 103.615 82.7698 103.411 82.7672 103.229L82.7655 103.054C82.7661 101.767 82.5032 100.493 81.9929 99.3113C81.4826 98.1294 80.7358 97.0645 79.7984 96.1821C79.7744 96.1598 79.7503 96.1393 79.7263 96.1172L79.7273 85.4775ZM82.7523 114.308C87.7452 112.892 92.8696 111.989 98.0459 111.615C98.0699 111.617 98.0963 111.621 98.1218 111.621C98.2138 111.62 98.3056 111.611 98.3959 111.593C107.035 111.012 115.71 111.921 124.04 114.28L124.047 124.984H82.7449L82.7523 114.308ZM79.6792 139.166H74.1387C74.0927 139.166 74.0486 139.147 74.016 139.115C73.9835 139.082 73.9652 139.038 73.9652 138.992V111.839C73.965 111.324 73.7761 110.827 73.4342 110.441C73.0922 110.056 72.621 109.81 72.1097 109.749C70.4083 109.553 68.8431 108.724 67.7264 107.426C66.6096 106.128 66.0233 104.456 66.0846 102.745C66.2446 99.3124 69.1116 96.497 72.612 96.3349C72.7204 96.3299 72.8286 96.3274 72.9366 96.3272C74.4524 96.3284 75.928 96.8147 77.1474 97.715C77.2822 97.8885 77.4547 98.029 77.6519 98.1258C77.7045 98.1739 77.7576 98.2193 77.8088 98.2683C78.4631 98.8824 78.9847 99.624 79.3416 100.447C79.6985 101.271 79.883 102.158 79.8839 103.056C79.8839 103.124 79.8839 103.196 79.8858 103.269C79.8877 103.405 79.8899 103.56 79.882 103.652C79.8789 103.691 79.8772 103.731 79.8772 103.77L79.8618 126.424L79.8582 131.856V131.861L79.8534 138.991C79.8535 139.014 79.8491 139.037 79.8404 139.058C79.8317 139.079 79.8189 139.099 79.8027 139.115C79.7865 139.131 79.7673 139.144 79.7461 139.153C79.7249 139.161 79.7022 139.166 79.6792 139.166V139.166ZM82.7415 130.418L82.7432 127.867H124.049L124.051 130.418H82.7415ZM134.683 109.749C134.172 109.81 133.7 110.056 133.359 110.441C133.017 110.827 132.828 111.324 132.827 111.839V138.992C132.827 139.038 132.809 139.082 132.777 139.115C132.744 139.147 132.7 139.166 132.654 139.166H127.114C127.067 139.166 127.023 139.147 126.991 139.115C126.958 139.082 126.94 139.038 126.94 138.992L126.923 113.186V113.173L126.916 103.77C126.916 103.73 126.915 103.691 126.911 103.651C126.904 103.558 126.906 103.403 126.907 103.267C126.907 103.195 126.909 103.123 126.909 103.056C126.91 102.158 127.095 101.271 127.452 100.447C127.808 99.6241 128.33 98.8826 128.984 98.2685C129.036 98.2205 129.089 98.1724 129.141 98.1258C129.339 98.029 129.511 97.8884 129.646 97.7148C130.865 96.8146 132.341 96.3283 133.856 96.3272C133.964 96.3272 134.073 96.3298 134.181 96.3349C137.681 96.497 140.547 99.3124 140.709 102.745C140.77 104.456 140.183 106.128 139.067 107.426C137.95 108.724 136.384 109.553 134.683 109.749V109.749Z" fill="white"/>
<path d="M70.1717 65.8047C70.8098 68.1307 72.8849 69.8481 75.3156 69.8481C77.7463 69.8481 79.821 68.1307 80.4595 65.8047H82.3045V67.3713C82.3045 67.7536 82.4564 68.1202 82.7267 68.3905C82.997 68.6608 83.3636 68.8127 83.7459 68.8127H124.573C124.955 68.8127 125.322 68.6608 125.592 68.3905C125.862 68.1202 126.014 67.7536 126.014 67.3713V35.4682C126.014 35.0859 125.862 34.7192 125.592 34.4489C125.322 34.1786 124.955 34.0268 124.573 34.0268H83.7459C83.3636 34.0268 82.997 34.1786 82.7267 34.4489C82.4564 34.7192 82.3045 35.0859 82.3045 35.4682V51.5129C80.5651 50.3189 78.5542 49.58 76.4555 49.3636C75.7937 36.8887 65.8979 26.9523 53.8278 26.9523C41.3724 26.9523 31.2328 37.5335 31.1658 50.5659C31.1634 50.5993 31.1608 50.6327 31.1608 50.6666V139.166H26.8438C26.4615 139.166 26.0948 139.318 25.8245 139.588C25.5542 139.858 25.4023 140.225 25.4023 140.607C25.4023 140.989 25.5542 141.356 25.8245 141.626C26.0948 141.897 26.4615 142.049 26.8438 142.049H39.8645C40.2467 142.049 40.6134 141.897 40.8837 141.626C41.154 141.356 41.3059 140.989 41.3059 140.607C41.3059 140.225 41.154 139.858 40.8837 139.588C40.6134 139.318 40.2467 139.166 39.8645 139.166H34.0436V50.7641C34.0448 50.7401 34.0469 50.718 34.0469 50.6945C34.0469 39.192 42.9207 29.8342 53.8278 29.8342C64.3143 29.8342 72.919 38.4838 73.5681 49.3724C70.4599 49.7177 67.5877 51.196 65.5005 53.5249C63.4132 55.8538 62.2571 58.8701 62.2531 61.9975V64.3633C62.2531 64.7456 62.405 65.1122 62.6753 65.3825C62.9456 65.6529 63.3122 65.8047 63.6945 65.8047H70.1717ZM75.3156 66.9653C74.9069 66.9586 74.5065 66.8488 74.1517 66.6459C73.7968 66.4429 73.4991 66.1536 73.2861 65.8047H77.3461C77.1329 66.1537 76.835 66.4431 76.48 66.646C76.125 66.8489 75.7245 66.9588 75.3156 66.9653V66.9653ZM85.1873 65.8047H86.406C86.7883 65.8047 87.1549 65.6529 87.4252 65.3825C87.6956 65.1122 87.8474 64.7456 87.8474 64.3633V63.7656L95.0737 56.6198L103.822 65.9299H85.1873V65.8047ZM107.778 65.9294L107.558 65.6949L114.363 59.9615L120.736 65.9299L107.778 65.9294ZM123.131 36.9091V64.2242L115.399 56.9821C115.141 56.7408 114.804 56.6024 114.451 56.5931C114.099 56.5838 113.755 56.7043 113.485 56.9317L105.581 63.591L96.1622 53.5681C96.0305 53.4279 95.872 53.3156 95.6962 53.2376C95.5203 53.1597 95.3306 53.1178 95.1383 53.1143C94.9457 53.1089 94.7541 53.1431 94.5752 53.2147C94.3963 53.2862 94.234 53.3937 94.0983 53.5304L87.6687 59.8877C87.3217 57.8266 86.4692 55.8837 85.1873 54.2329V36.9096L123.131 36.9091ZM65.1371 61.9975C65.14 59.3941 66.1755 56.8981 68.0164 55.0572C69.8573 53.2163 72.3533 52.1808 74.9567 52.1779H75.146C77.7494 52.1809 80.2453 53.2164 82.0862 55.0573C83.9271 56.8982 84.9626 59.3941 84.9656 61.9975V62.7153C84.9384 62.7824 84.9166 62.8514 84.9002 62.9219H65.1371V61.9975Z" fill="white"/>
<path d="M73.0516 55.3733C72.9422 55.2188 72.8033 55.0875 72.6431 54.9867C72.4828 54.886 72.3043 54.8178 72.1177 54.786C71.9311 54.7542 71.7401 54.7595 71.5555 54.8016C71.371 54.8437 71.1965 54.9217 71.0421 55.0312C69.7231 55.9647 68.5928 57.1395 67.7108 58.4934C67.6073 58.652 67.5361 58.8293 67.5013 59.0154C67.4664 59.2014 67.4685 59.3925 67.5074 59.5778C67.5464 59.763 67.6215 59.9388 67.7284 60.095C67.8353 60.2512 67.9719 60.3849 68.1304 60.4883C68.289 60.5918 68.4664 60.6629 68.6524 60.6978C68.8385 60.7327 69.0296 60.7306 69.2148 60.6916C69.4001 60.6527 69.5758 60.5776 69.732 60.4707C69.8883 60.3638 70.0219 60.2272 70.1254 60.0686C70.8095 59.0183 71.6864 58.107 72.7096 57.3828C72.864 57.2733 72.9953 57.1345 73.0961 56.9743C73.1968 56.814 73.265 56.6355 73.2968 56.4489C73.3286 56.2623 73.3233 56.0712 73.2812 55.8867C73.2391 55.7021 73.1611 55.5277 73.0516 55.3733Z" fill="white"/>
<path d="M104.835 54.6338C105.839 54.6338 106.82 54.3361 107.655 53.7785C108.489 53.2208 109.14 52.4282 109.524 51.5008C109.908 50.5734 110.008 49.553 109.813 48.5685C109.617 47.584 109.133 46.6797 108.424 45.9699C107.714 45.2601 106.81 44.7767 105.825 44.5809C104.841 44.3851 103.82 44.4856 102.893 44.8697C101.965 45.2539 101.173 45.9044 100.615 46.739C100.057 47.5736 99.7598 48.5548 99.7598 49.5586C99.7613 50.9041 100.296 52.1942 101.248 53.1456C102.199 54.0971 103.489 54.6323 104.835 54.6338V54.6338ZM104.835 47.3662C105.269 47.3662 105.692 47.4948 106.053 47.7357C106.414 47.9766 106.695 48.319 106.86 48.7196C107.026 49.1202 107.07 49.561 106.985 49.9863C106.901 50.4116 106.692 50.8022 106.385 51.1088C106.079 51.4154 105.688 51.6243 105.263 51.7088C104.837 51.7934 104.397 51.75 103.996 51.5841C103.595 51.4181 103.253 51.1371 103.012 50.7766C102.771 50.4161 102.643 49.9922 102.643 49.5586C102.643 48.9773 102.874 48.4201 103.285 48.009C103.696 47.598 104.254 47.3668 104.835 47.3662V47.3662Z" fill="white"/>
</svg>
