<svg width="169" height="169" viewBox="0 0 169 169" fill="none" xmlns="http://www.w3.org/2000/svg">
<path d="M0 30.5367C0 13.9681 13.4315 0.536621 30 0.536621H168.464V139.001C168.464 155.569 155.033 169.001 138.464 169.001H0V30.5367Z" fill="#72BF44"/>
<path d="M144.516 96.4878H142.51V78.4253C142.51 75.5658 141.087 73.0339 138.914 71.4955V69.0362C138.914 65.4687 136.011 62.5665 132.444 62.5665H130.947L136.675 54.1601C138.596 51.3424 137.865 47.4875 135.048 45.567L96.1744 19.0759C94.8095 18.1454 93.1643 17.8021 91.5406 18.1101C89.9177 18.4176 88.5115 19.3386 87.5813 20.7038L54.0287 69.9391H44.6919L46.9445 47.1355C46.9699 46.8785 47.1369 46.6558 47.3698 46.5681C50.272 45.4739 52.7871 43.4304 54.4517 40.8142C54.5828 40.6083 54.8301 40.4905 55.0861 40.5164L69.7305 41.9632C70.7806 42.065 71.7146 41.3002 71.8183 40.2507C71.9219 39.2013 71.1553 38.2667 70.1058 38.163L55.4614 36.7162C53.7615 36.5498 52.1404 37.3331 51.2296 38.7642C50.0058 40.6878 48.1565 42.1901 46.0227 42.9946C44.4166 43.6002 43.3137 45.0428 43.1441 46.76L40.8546 69.9388H38.4198L41.9823 33.8729C42.1106 32.5748 43.2692 31.6211 44.5689 31.7512L74.1625 34.6746C75.212 34.7758 76.1466 34.0116 76.2502 32.9621C76.3539 31.9126 75.5873 30.978 74.5378 30.8744L44.9442 27.951C41.5513 27.6163 38.5172 30.1039 38.1819 33.4974L35.3103 62.5665H30.4201C26.8529 62.5665 23.9504 65.4687 23.9504 69.0362V70.7138C21.032 72.0574 19 75.0075 19 78.4253V143.513C19 148.193 22.807 152 27.4868 152H134.024C138.703 152 142.51 148.193 142.51 143.513V125.451H144.516C146.883 125.451 148.808 123.526 148.808 121.159V100.78C148.808 98.4133 146.883 96.4878 144.516 96.4878ZM132.444 66.3855C133.906 66.3852 135.095 67.5745 135.095 69.0364V70.0092C134.744 69.9647 134.387 69.9393 134.024 69.9393H125.922L128.344 66.3855H132.444ZM90.7369 22.854C91.0928 22.3319 91.6307 21.9796 92.2515 21.8619C92.3998 21.8339 92.5488 21.8197 92.6966 21.8197C93.1669 21.8197 93.6265 21.9605 94.0238 22.2311L132.897 48.7223C133.975 49.457 134.254 50.9315 133.52 52.0092L121.301 69.9386H118.369L124.36 61.1482C125.331 59.7226 125.411 57.9084 124.568 56.4132C123.447 54.4267 122.993 52.0878 123.289 49.8268C123.509 48.1447 122.768 46.5027 121.357 45.5411L101.205 31.8082C99.7939 30.8464 97.9949 30.7582 96.5099 31.5782C94.5143 32.68 92.1711 33.1126 89.9125 32.7965C88.2375 32.5614 86.5386 33.3178 85.5815 34.7219L61.5822 69.9388H58.6499L90.7369 22.854ZM91.5778 55.2786C83.2627 55.2786 76.4371 61.7622 75.8809 69.9388H66.2028L88.7366 36.8725C88.7368 36.8725 88.7368 36.8725 88.7368 36.8725C88.8648 36.6843 89.0771 36.5723 89.2951 36.5723C89.3241 36.5723 89.3532 36.5744 89.3822 36.5783C92.4543 37.008 95.6407 36.4202 98.3553 34.9214C98.5688 34.8031 98.8431 34.8201 99.0546 34.964L119.207 48.6972C119.418 48.8411 119.534 49.0903 119.502 49.3321C119.1 52.4071 119.718 55.588 121.242 58.2895C121.364 58.5064 121.349 58.7844 121.204 58.9977L113.749 69.9386H107.275C106.719 61.7622 99.8934 55.2786 91.5778 55.2786ZM103.446 69.9391H79.7096C80.2566 63.8701 85.369 59.0976 91.5778 59.0976C97.7868 59.0974 102.899 63.8701 103.446 69.9391ZM27.7692 69.0362C27.7692 67.5742 28.9581 66.3849 30.4201 66.3849H34.9332L34.5822 69.9388H27.7692V69.0362ZM22.8187 78.4253C22.8187 75.8516 24.9128 73.7576 27.4868 73.7576H134.024C136.598 73.7576 138.692 75.8516 138.692 78.4253V83.7236H22.8187V78.4253ZM138.692 143.513C138.692 146.087 136.598 148.181 134.024 148.181H27.4868C24.9128 148.181 22.8187 146.087 22.8187 143.513V138.215H33.1153C34.17 138.215 35.0245 137.36 35.0245 136.306C35.0245 135.252 34.1697 134.397 33.1153 134.397H22.8187V87.5423H138.692V96.4878H120.537H120.537C114.817 96.4878 109.862 99.8221 107.51 104.649C107.503 104.665 107.494 104.68 107.486 104.697C107.466 104.738 107.448 104.78 107.429 104.822C107.149 105.417 106.906 106.032 106.707 106.668C106.707 106.67 106.706 106.671 106.706 106.673C106.283 108.031 106.055 109.474 106.055 110.97C106.055 118.955 112.552 125.451 120.537 125.451H120.537H138.691V134.397H45.3412C44.2865 134.397 43.432 135.252 43.432 136.306C43.432 137.36 44.2868 138.215 45.3412 138.215H138.692V143.513ZM144.99 121.159C144.99 121.42 144.777 121.632 144.516 121.632H120.537C116.495 121.632 112.971 119.371 111.163 116.048C111.081 115.897 111.003 115.744 110.927 115.588C110.777 115.278 110.642 114.959 110.523 114.632C110.103 113.489 109.875 112.256 109.875 110.97C109.875 109.683 110.104 108.45 110.523 107.307C110.642 106.981 110.778 106.662 110.927 106.351C111.003 106.196 111.081 106.042 111.163 105.891C112.971 102.568 116.495 100.307 120.537 100.307H144.516C144.777 100.307 144.99 100.519 144.99 100.78V121.159Z" fill="white"/>
<path d="M120.985 103.223C116.713 103.223 113.238 106.698 113.238 110.97C113.238 115.241 116.713 118.716 120.985 118.716C125.257 118.716 128.732 115.241 128.732 110.97C128.732 106.698 125.257 103.223 120.985 103.223ZM120.985 114.898C118.819 114.898 117.057 113.135 117.057 110.97C117.057 108.804 118.819 107.042 120.985 107.042C123.151 107.042 124.913 108.804 124.913 110.97C124.913 113.136 123.151 114.898 120.985 114.898Z" fill="white"/>
</svg>
