<svg width="170" height="169" viewBox="0 0 170 169" fill="none" xmlns="http://www.w3.org/2000/svg">
<path d="M0.667969 30.5357C0.667969 13.9671 14.0995 0.535645 30.668 0.535645H169.132V139C169.132 155.568 155.701 169 139.132 169H0.667969V30.5357Z" fill="#72BF44"/>
<path d="M31.5311 45.1927L37.6085 51.117L36.174 59.4823C35.6501 62.5365 38.8583 64.866 41.6007 63.4249L49.1132 59.4754L56.6258 63.4249C59.3704 64.8676 62.5754 62.5313 62.0525 59.482L60.6178 51.1168L66.6957 45.1925H66.6955C66.8188 45.0723 66.9321 44.9447 67.036 44.8119L69.7452 47.4527C69.8235 47.5291 69.8593 47.6393 69.8409 47.7468L67.9375 58.8432C67.3369 62.342 71.0134 65.0131 74.1557 63.3609L84.1201 58.1221C84.2174 58.0712 84.3334 58.071 84.4301 58.1221L94.3951 63.3612C97.5323 65.0102 101.214 62.3494 100.613 58.8434L98.7099 47.7473C98.6917 47.6393 98.7273 47.5291 98.8053 47.4532L101.515 44.8124C101.619 44.9453 101.732 45.0726 101.855 45.1927L107.933 51.117L106.498 59.4823C105.975 62.5365 109.182 64.866 111.925 63.4249L119.438 59.4754L126.95 63.4249C129.695 64.8676 132.9 62.5313 132.377 59.482L130.942 51.1168L137.019 45.1927C139.238 43.0301 138.012 39.2585 134.946 38.8131L126.547 37.5926L122.791 29.9813C121.419 27.203 117.454 27.2033 116.083 29.9813L112.327 37.5923L107.8 38.2501C108.917 35.7222 107.358 32.7011 104.492 32.285L93.3504 30.6658C93.2426 30.6502 93.149 30.5822 93.1008 30.4842L88.1179 20.3887C86.5453 17.2016 82.0031 17.2059 80.4321 20.3887L75.4497 30.4844C75.4012 30.5825 75.3079 30.6505 75.1996 30.6663L64.0587 32.2853C61.1926 32.7014 59.6332 35.7227 60.7501 38.2504L56.2237 37.5926L52.4676 29.9813C51.0958 27.203 47.1305 27.2033 45.7598 29.9813L42.0029 37.5926L33.6039 38.8131C30.537 39.2587 29.3128 43.0303 31.5311 45.1927V45.1927ZM113.005 41.4889C114.224 41.312 115.277 40.5469 115.822 39.4427L119.437 32.1184L123.052 39.4432C123.597 40.5472 124.65 41.312 125.868 41.4886L133.951 42.6632L128.102 48.3645C127.22 49.224 126.818 50.4616 127.026 51.675L128.407 59.7253L121.178 55.9244C120.088 55.3514 118.786 55.3512 117.697 55.9244L110.467 59.7253L111.848 51.675C112.056 50.4616 111.653 49.2242 110.772 48.3645L104.924 42.6635L113.005 41.4889ZM64.6266 36.1973L75.7673 34.5784C77.1633 34.3757 78.3698 33.4994 78.9944 32.2341L83.9768 22.1382C84.1009 21.8873 84.4488 21.8873 84.5727 22.1382L89.5553 32.2341C90.1799 33.4994 91.3861 34.3757 92.7819 34.5781L103.923 36.1973C104.2 36.2374 104.308 36.569 104.107 36.764L96.0443 44.6227C95.0347 45.6076 94.5743 47.0255 94.8128 48.4157L96.7159 59.5118C96.7636 59.7861 96.4829 59.9925 96.2338 59.8623L86.2683 54.623C85.0202 53.967 83.5287 53.9668 82.2801 54.6233L72.3153 59.862C72.0673 59.9922 71.7861 59.788 71.8328 59.5118L73.7361 48.4154C73.9746 47.0252 73.5139 45.6073 72.5038 44.6222L64.4419 36.764C64.2429 36.5695 64.348 36.2382 64.6266 36.1973V36.1973ZM42.6818 41.4889C43.9005 41.312 44.9533 40.5469 45.4983 39.4427L49.1132 32.1182L52.728 39.4424C53.2727 40.5467 54.3259 41.3117 55.5445 41.4886L63.627 42.6632L57.7783 48.3645C56.8968 49.224 56.4946 50.4616 56.7028 51.675L58.0835 59.7253L50.8539 55.9244C49.7644 55.3514 48.4627 55.3512 47.373 55.9244L40.1433 59.7253L41.524 51.675C41.732 50.4616 41.3298 49.2242 40.4482 48.3645L34.5996 42.6632L42.6818 41.4889Z" fill="white"/>
<path d="M144.993 121.937C144.98 121.932 144.967 121.926 144.954 121.921L143.578 121.388C146.56 117.151 145.762 110.496 142.351 108.737C142.197 108.657 142.097 108.48 142.097 108.284V107.058C142.097 105.966 141.213 105.081 140.121 105.081C139.029 105.081 138.144 105.966 138.144 107.058V108.284C138.144 109.967 139.06 111.486 140.523 112.242C140.528 112.245 140.546 112.254 140.551 112.257C141.513 112.753 142.31 117.487 139.676 119.877C134.488 117.868 135.567 118.286 130.591 116.359L130.589 114.389C133.476 112.023 135.194 108.506 135.194 104.724V97.2707C135.194 96.1791 134.309 95.2941 133.218 95.2941C129.576 95.2941 130.634 95.3326 128.35 95.1379C126.695 94.9974 125.2 93.6873 124.795 92.0198C124.262 89.8398 121.147 89.829 120.609 92.0235C119.708 95.7406 115.915 95.2941 112.187 95.2941C111.095 95.2941 110.21 96.1791 110.21 97.2707V104.826C110.21 108.732 112.014 112.19 114.806 114.424V116.356C107.75 119.091 113.223 116.97 105.508 119.96C103.887 118.528 103.793 116.204 103.809 115.457C103.848 113.544 104.568 112.408 104.84 112.268C104.848 112.264 104.871 112.252 104.879 112.248C106.353 111.485 107.269 109.966 107.269 108.284V95.9522C107.269 82.0662 123.864 75.1309 133.583 84.7783C136.524 87.6984 138.144 91.5895 138.144 95.7343V97.8334C138.144 98.925 139.029 99.81 140.121 99.81C141.212 99.81 142.097 98.925 142.097 97.8334V95.7343C142.097 90.5282 140.062 85.6409 136.368 81.9729C124.068 69.7633 103.316 78.7616 103.316 95.9522V108.284C103.316 108.479 103.217 108.657 103.05 108.743C101.173 109.711 99.9194 112.314 99.8561 115.375C99.8081 117.703 100.433 119.82 101.6 121.475C100.599 121.863 97.977 122.62 95.671 125.797C95.4783 125.722 95.3046 125.654 95.1526 125.594C94.4729 125.325 93.7553 125.22 93.0508 125.267V122.17C96.1293 119.664 98.1001 115.847 98.1001 111.577V105.847C99.8901 105.363 101.213 103.729 101.213 101.788V92.3414C101.213 88.9403 98.2661 86.4397 95.2132 86.6759C95.0975 86.6851 94.9676 86.6414 94.9502 86.5531C94.2644 83.0476 91.9784 81.2703 88.1551 81.2703H86.6598C85.5679 81.2703 84.6832 82.1553 84.6832 83.2469C84.6832 84.3385 85.5679 85.2235 86.6598 85.2235H88.1551C90.4878 85.2235 90.8238 86.0505 91.0708 87.3116C91.4714 89.3604 93.3797 90.7809 95.5165 90.6175C96.3093 90.5558 97.2596 91.2793 97.2596 92.3414V101.788C97.2596 101.924 97.1403 102.044 97.0037 102.044C95.7361 102.044 94.7209 100.997 94.7209 99.761C94.7209 98.7179 93.9906 97.8131 92.9496 97.6073C92.0008 97.4191 91.0447 97.87 90.5879 98.7234C89.4932 100.771 87.3729 102.044 85.055 102.044H72.4272H70.9676C70.1425 102.044 69.4712 101.372 69.4712 100.547V91.4948C69.4712 88.0366 72.2846 85.2232 75.7429 85.2232H77.4356C78.5275 85.2232 79.4122 84.3382 79.4122 83.2466C79.4122 82.155 78.5275 81.27 77.4356 81.27H75.7429C70.1048 81.27 65.518 85.8568 65.518 91.4948V100.547C65.518 103.378 67.6875 105.709 70.4506 105.97V111.577C70.4506 115.51 72.2498 119.52 75.4999 122.168V125.214C74.9261 125.223 74.35 125.331 73.7989 125.548C73.7391 125.572 73.6764 125.596 73.611 125.622C72.2835 124.293 70.6917 123.244 68.9309 122.562C63.2025 120.344 57.9363 118.309 57.9363 118.309C57.2566 118.04 56.5389 117.936 55.8345 117.983V114.884C58.913 112.378 60.8838 108.561 60.8838 104.291V98.5613C62.6738 98.0772 63.9965 96.4432 63.9965 94.5022V85.0556C63.9965 81.6521 61.0493 79.1537 57.9969 79.3901C57.8846 79.3991 57.751 79.3556 57.7336 79.2676C57.0484 75.7621 54.7624 73.9845 50.9388 73.9845H38.5273C32.8893 73.9845 28.3025 78.5713 28.3025 84.2093V93.2617C28.3025 96.0922 30.472 98.4235 33.235 98.6849V104.291C33.235 108.224 35.0343 112.234 38.2843 114.883V117.928C37.7106 117.937 37.1347 118.045 36.5837 118.263C36.5837 118.263 33.2469 119.561 25.6011 122.547C20.3763 124.588 17 129.532 17 135.141V140.822C17 143.485 19.1666 145.651 21.8292 145.651H54.216V148.107C54.216 150.77 56.3827 152.936 59.0453 152.936H109.955C112.618 152.936 114.784 150.77 114.784 148.107V145.651H147.266C149.876 145.651 152 143.528 152 140.917V132.735C152 128.075 149.119 123.635 144.993 121.937V121.937ZM133.216 126.738L131.623 126.362C130.102 126.003 128.493 126.476 127.408 127.596L129.839 120.307L132.397 121.298L133.216 126.738ZM122.702 129.211L118.74 117.33C118.767 117.066 118.76 116.995 118.76 116.539C121.344 117.368 124.166 117.375 126.638 116.561C126.638 116.9 126.629 117.067 126.661 117.34L122.702 129.211ZM113.009 121.293C114.052 120.889 114.947 120.542 115.564 120.302L117.996 127.596C116.909 126.474 115.298 126.004 113.782 126.362L112.189 126.737L113.009 121.293ZM114.164 99.2479C115.931 99.2479 116.311 99.1656 117.315 99.0892H117.315C119.421 98.9279 121.35 97.8938 122.705 96.3304C125.019 98.9933 127.8 99.2479 131.241 99.2479V104.724C131.241 109.376 127.437 113.215 122.845 113.215C122.836 113.215 122.826 113.215 122.817 113.215C117.639 113.198 114.164 109.272 114.164 104.826V99.2479H114.164ZM101.9 125.6C102.196 125.485 105.423 124.234 108.763 122.939L108.034 127.782C107.687 129.755 109.475 131.44 111.423 130.98L114.69 130.209C114.86 130.169 115.04 130.223 115.161 130.35L120.729 136.241V141.698H114.762C114.474 136.559 111.155 131.79 106.148 129.848C106.147 129.848 106.147 129.848 106.147 129.848C100.756 127.76 100.548 127.679 99.5533 127.295C100.356 126.448 101.229 125.879 101.9 125.6V125.6ZM85.8812 133.858C85.9445 133.96 87.5769 136.374 87.6441 136.473L86.4294 139.124H82.57L81.3556 136.473C81.4228 136.374 83.055 133.96 83.1182 133.858H85.8812ZM81.771 148.983L82.929 143.077H86.0715L87.2296 148.983H81.771ZM93.6986 129.271C94.3071 129.512 95.2095 129.858 96.6761 130.423L91.3251 134.86C91.0394 134.437 89.7333 132.503 89.4979 132.155C91.0647 130.855 91.0333 130.881 92.8017 129.415C93.0532 129.207 93.3966 129.151 93.6986 129.271V129.271ZM74.404 111.577V105.997H85.0553C87.6135 105.997 90.0527 105.041 91.9125 103.358C92.4892 104.171 93.2561 104.84 94.1472 105.302V111.577C94.1472 116.945 89.7667 121.279 84.4447 121.279C78.2068 121.279 74.404 116.395 74.404 111.577ZM89.0978 124.416V127.351L86.6078 129.416C86.6065 129.417 86.6052 129.418 86.6036 129.419C86.4155 129.576 86.2178 129.785 86.125 129.905H82.875C82.8734 129.903 82.8715 129.901 82.8697 129.899C82.7197 129.715 82.56 129.556 82.3956 129.419C82.3943 129.418 82.3932 129.417 82.3919 129.416L79.4533 126.979V124.392C82.4699 125.47 86.0141 125.538 89.0978 124.416V124.416ZM76.145 129.371C76.145 129.371 79.4064 132.075 79.5018 132.155L77.6747 134.86L72.2785 130.386C74.4106 129.554 74.7066 129.44 75.2487 129.226C75.5507 129.107 75.8941 129.163 76.145 129.371V129.371ZM69.4209 127.255C68.412 127.647 68.3727 127.663 63.0154 129.756C57.8838 131.757 54.5286 136.186 54.2353 141.698H54.0421L52.5444 134.06L53.6009 131.755C54.5331 131.864 55.4842 131.57 56.1861 130.989L63.6853 124.77L67.5041 126.249C68.1812 126.512 68.8242 126.849 69.4209 127.255V127.255ZM48.6652 126.573C48.7311 126.679 50.3524 129.076 50.4281 129.188L49.2134 131.838H45.354L44.1396 129.188L44.168 129.146C44.2352 129.047 45.8395 126.674 45.9024 126.573H48.6652ZM44.5549 141.698L45.713 135.792H48.8555L50.0135 141.698H44.5549ZM56.4828 121.986C57.1923 122.266 58.4808 122.76 59.4604 123.138L54.1093 127.575C53.8679 127.218 52.5425 125.255 52.2821 124.87C54.4627 123.061 54.1939 123.284 55.586 122.13C55.8371 121.921 56.1816 121.867 56.4828 121.986V121.986ZM32.2557 93.2625V84.2101C32.2557 80.7519 35.0691 77.9385 38.5273 77.9385H50.9396C53.2723 77.9385 53.6083 78.7652 53.855 80.0271C54.2558 82.0759 56.171 83.4967 58.301 83.3325C59.0919 83.2708 60.0441 83.9927 60.0441 85.0564V94.503C60.0441 94.6395 59.9247 94.7589 59.7882 94.7589C58.5227 94.7589 57.5054 93.7144 57.5054 92.4763C57.5054 91.4666 56.8212 90.5901 55.8416 90.3447C54.882 90.1044 53.8534 90.5408 53.3727 91.4387C52.2779 93.4867 50.1577 94.7589 47.8398 94.7589C46.0922 94.7589 35.5427 94.7589 33.7524 94.7589C32.927 94.7586 32.2557 94.0876 32.2557 93.2625V93.2625ZM37.1882 104.292V98.7118H47.8395C50.3993 98.7118 52.8387 97.7549 54.6968 96.0727C55.2734 96.8862 56.0403 97.5551 56.9314 98.0163V104.292C56.9314 109.657 52.556 113.994 47.2289 113.994C41.0803 113.994 37.1882 109.198 37.1882 104.292V104.292ZM47.2286 117.948C48.7319 117.948 50.3614 117.684 51.8818 117.131V120.065L49.3918 122.131C49.1986 122.291 48.9996 122.504 48.909 122.62H45.6589C45.4816 122.406 45.3332 122.261 45.1761 122.131L42.2376 119.694V117.107C43.8328 117.677 45.5551 117.948 47.2286 117.948V117.948ZM38.0329 121.941C38.3347 121.823 38.6783 121.877 38.9287 122.086C40.2056 123.144 40.8305 123.663 42.2858 124.869L40.4586 127.575C38.4525 125.912 39.1672 126.504 35.0614 123.099C36.44 122.563 37.3912 122.194 38.0329 121.941V121.941ZM20.9532 140.822V135.141C20.9532 131.172 23.342 127.674 27.0393 126.23L30.8494 124.742C33.7408 127.14 35.4973 128.596 38.3821 130.989C39.115 131.597 40.0754 131.861 40.9673 131.755L42.0236 134.06L40.5261 141.698H21.8292C21.3462 141.698 20.9532 141.305 20.9532 140.822V140.822ZM58.1693 148.107C58.1693 146.673 58.1693 145.357 58.1693 142.426C58.1693 138.638 60.2969 135.061 64.5363 133.405L68.0668 132.028L75.5976 138.274C76.2739 138.835 77.2208 139.152 78.1833 139.04L79.2396 141.345L77.7421 148.983H59.0453C58.5622 148.983 58.1693 148.59 58.1693 148.107V148.107ZM110.831 148.107C110.831 148.59 110.438 148.983 109.955 148.983H91.2579L89.7604 141.345L90.8167 139.04C91.7815 139.152 92.724 138.836 93.4018 138.274L100.901 132.055L104.72 133.534C108.359 134.944 110.831 138.52 110.831 142.455C110.831 144.503 110.831 145.769 110.831 148.107V148.107ZM148.047 140.918C148.047 141.348 147.697 141.698 147.266 141.698H124.682V136.235L130.244 130.35L130.244 130.35C130.364 130.223 130.545 130.169 130.715 130.209L133.982 130.98C135.934 131.441 137.717 129.751 137.371 127.782L136.642 122.942C137.705 123.353 137.304 123.198 143.506 125.6C145.765 126.54 148.047 129.287 148.047 132.735V140.918H148.047Z" fill="white"/>
</svg>
