<svg width="1905" height="312" viewBox="0 0 1905 312" fill="none" xmlns="http://www.w3.org/2000/svg">
<path fill-rule="evenodd" clip-rule="evenodd" d="M141.775 99.6099C156.531 71.3476 142.484 37.8227 126.337 21.6761C97.436 -7.22536 50.5775 -7.22536 21.6761 21.6761C-7.22536 50.5775 -7.22536 97.436 21.6761 126.337C38.5096 143.171 71.4606 156.646 99.6201 141.792C102.514 140.266 103.962 139.502 104.669 139.218C107.657 138.016 109.229 137.833 112.413 138.316C113.167 138.431 114.154 138.686 116.127 139.198C122.045 140.732 125.005 141.499 127.162 141.421C134.919 141.142 141.142 134.919 141.421 127.162C141.499 125.005 140.732 122.046 139.198 116.128C138.687 114.155 138.431 113.168 138.317 112.418C137.832 109.235 138.006 107.708 139.197 104.716C139.477 104.011 140.243 102.544 141.775 99.6099ZM50.7532 72.9552C50.7532 77.0425 47.4398 80.3559 43.3525 80.3559C39.2652 80.3559 35.9518 77.0425 35.9518 72.9552C35.9518 68.868 39.2652 65.5546 43.3525 65.5546C47.4398 65.5546 50.7532 68.868 50.7532 72.9552ZM80.3559 72.9552C80.3559 77.0425 77.0425 80.3559 72.9552 80.3559C68.868 80.3559 65.5546 77.0425 65.5546 72.9552C65.5546 68.868 68.868 65.5546 72.9552 65.5546C77.0425 65.5546 80.3559 68.868 80.3559 72.9552ZM102.558 80.3559C106.645 80.3559 109.959 77.0425 109.959 72.9552C109.959 68.868 106.645 65.5546 102.558 65.5546C98.4707 65.5546 95.1573 68.868 95.1573 72.9552C95.1573 77.0425 98.4707 80.3559 102.558 80.3559Z" fill="white"/>
<path d="M1750.82 179.401C1778.67 165.386 1813.49 170.017 1836.74 193.294C1859.41 215.995 1864.37 249.714 1851.62 277.236C1853.39 276.378 1855.14 275.416 1856.87 274.345C1858.59 273.282 1859.45 272.75 1860.1 272.493C1861.34 272.001 1862.28 271.858 1863.61 271.961C1864.31 272.015 1865.1 272.22 1866.67 272.629C1876.61 275.207 1881.57 276.495 1885.15 275.766C1891.36 274.501 1896.21 269.643 1897.47 263.426C1898.2 259.844 1896.92 254.872 1894.34 244.928C1893.93 243.347 1893.73 242.557 1893.67 241.857C1893.57 240.524 1893.72 239.57 1894.21 238.327C1894.47 237.676 1895 236.822 1896.06 235.114C1915.2 204.271 1900.39 166.88 1881.69 148.156C1850.85 117.281 1800.86 117.281 1770.02 148.156C1760.96 157.236 1754.55 167.977 1750.82 179.401Z" fill="white"/>
<path fill-rule="evenodd" clip-rule="evenodd" d="M1758.64 303.79C1784.06 319.521 1815.38 306.734 1830.16 291.944C1855.55 266.519 1855.55 225.295 1830.16 199.87C1804.76 174.444 1763.59 174.444 1738.2 199.87C1722.8 215.29 1710.6 246.082 1726.36 271.482C1727.23 272.889 1727.67 273.592 1727.88 274.129C1728.29 275.152 1728.41 275.938 1728.33 277.036C1728.28 277.612 1728.11 278.263 1727.78 279.565C1725.66 287.754 1724.6 291.848 1725.2 294.798C1726.24 299.918 1730.23 303.919 1735.35 304.961C1738.29 305.561 1742.38 304.5 1750.56 302.378C1751.86 302.04 1752.51 301.872 1753.08 301.827C1754.18 301.742 1754.96 301.86 1755.98 302.265C1756.51 302.477 1757.22 302.915 1758.64 303.79ZM1802.7 245.901C1802.7 251.037 1806.86 255.201 1812 255.201C1817.14 255.201 1821.3 251.037 1821.3 245.901C1821.3 240.765 1817.14 236.601 1812 236.601C1806.86 236.601 1802.7 240.765 1802.7 245.901ZM1774.8 245.901C1774.8 251.037 1778.96 255.201 1784.1 255.201C1789.24 255.201 1793.4 251.037 1793.4 245.901C1793.4 240.765 1789.24 236.601 1784.1 236.601C1778.96 236.601 1774.8 240.765 1774.8 245.901ZM1756.2 255.201C1751.06 255.201 1746.9 251.037 1746.9 245.901C1746.9 240.765 1751.06 236.601 1756.2 236.601C1761.34 236.601 1765.5 240.765 1765.5 245.901C1765.5 251.037 1761.34 255.201 1756.2 255.201Z" fill="white"/>
<path d="M253 125C301.376 149.627 329.829 161.362 381.5 178C479.953 209.701 539.996 210.614 643 220C735.601 228.438 788.026 225.548 881 227C986.233 228.643 1045.25 227 1150.5 227C1240.91 227 1291.69 222.821 1382 227C1489.83 231.99 1657 255 1657 255" stroke="white" stroke-opacity="0.2" stroke-width="4" stroke-dasharray="6 6"/>
</svg>
